<?xml version="1.0" standalone="no"?><!DOCTYPE svg PUBLIC "-//W3C//DTD SVG 1.1//EN" "http://www.w3.org/Graphics/SVG/1.1/DTD/svg11.dtd"><svg t="1639924499884" class="icon" viewBox="0 0 1024 1024" version="1.1" xmlns="http://www.w3.org/2000/svg" p-id="6228" xmlns:xlink="http://www.w3.org/1999/xlink" width="200" height="200"><defs><style type="text/css"></style></defs><path d="M795.98933333 140.62933333c-81.92-43.69066667-176.9472-65.536-287.26613333-65.536s-205.34613333 21.84533333-287.26613333 65.536h-141.99466667l25.12213333 360.448c8.73813333 121.2416 72.0896 231.56053333 173.6704 299.28106667l229.376 154.0096 229.376-154.0096c102.67306667-67.72053333 166.02453333-178.03946667 174.76266667-299.28106667l25.12213333-360.448H795.98933333z m50.24426667 356.07893334c-7.64586667 100.48853333-60.07466667 193.3312-144.1792 249.0368l-193.3312 128.88746666L315.392 745.74506667c-84.10453333-56.79786667-137.6256-148.54826667-144.1792-249.0368L150.45973333 206.16533333h145.27146667v-28.39893333c62.2592-25.12213333 133.25653333-37.13706667 212.992-37.13706667s150.7328 13.1072 212.992 37.13706667V206.16533333H866.98666667l-20.75306667 290.54293334z" fill="#d81e06" p-id="6229"></path><path d="M696.59306667 316.48426667v-49.152H451.92533333c2.18453333-4.36906667 6.5536-9.8304 12.01493334-16.384 5.46133333-7.64586667 9.8304-13.1072 12.01493333-16.384L413.696 222.54933333c-33.86026667 49.152-80.82773333 92.84266667-141.99466667 132.16426667 4.36906667 4.36906667 10.92266667 12.01493333 19.6608 22.9376l18.56853334 18.56853333c25.12213333-16.384 48.05973333-33.86026667 67.72053333-53.52106666 28.39893333 27.30666667 52.4288 45.8752 72.0896 54.61333333-49.152 16.384-111.4112 29.4912-186.7776 38.22933333 2.18453333 5.46133333 6.5536 14.19946667 9.8304 26.2144 4.36906667 12.01493333 6.5536 20.75306667 7.64586667 26.2144l42.5984-7.64586666v232.6528H380.928V692.224h254.49813333v20.75306667h57.89013334V479.232H337.23733333c64.44373333-13.1072 122.33386667-29.4912 174.76266667-49.152 52.4288 20.75306667 126.70293333 37.13706667 225.00693333 49.152 5.46133333-18.56853333 10.92266667-37.13706667 18.56853334-54.61333333-66.62826667-4.36906667-124.5184-13.1072-172.57813334-26.2144 41.50613333-21.84533333 79.73546667-49.152 113.59573334-81.92z m-160.5632 207.53066666h100.48853333v44.78293334h-100.48853333v-44.78293334z m0 84.10453334h100.48853333v44.78293333h-100.48853333v-44.78293333z m-154.0096-84.10453334h100.48853333v44.78293334H382.02026667v-44.78293334z m0 84.10453334h100.48853333v44.78293333H382.02026667v-44.78293333zM419.15733333 314.29973333h194.42346667c-28.39893333 24.02986667-61.16693333 44.78293333-100.48853333 61.16693334-33.86026667-16.384-65.536-37.13706667-93.93493334-61.16693334z" fill="#d81e06" p-id="6230"></path></svg>